<svg xmlns="http://www.w3.org/2000/svg" viewBox="0 0 389.5646 78.9912">
    <g fill="#fff">
        <path d="M62.125 29.297h-2.532V54.03h3.465q5.118 0 7.423-1.174a8.892 8.892 0 0 0 3.771-3.949 14.488 14.488 0 0 0 1.466-6.83q0-6.242-3.492-9.684-3.145-3.096-10.1-3.096zM138.03 38.359a7.576 7.576 0 0 0-5.677 2.305 7.986 7.986 0 0 0-2.239 5.797 8.096 8.096 0 0 0 2.292 5.943 7.76 7.76 0 0 0 5.757 2.319 7.45 7.45 0 0 0 5.584-2.265 8.174 8.174 0 0 0 2.198-5.944 8.076 8.076 0 0 0-2.212-5.89 7.623 7.623 0 0 0-5.703-2.265zM108.686 38.279a7.351 7.351 0 0 0-5.605 2.385 8.596 8.596 0 0 0-2.231 6.116 8.687 8.687 0 0 0 2.27 6.184 7.36 7.36 0 0 0 5.592 2.425 7.493 7.493 0 0 0 5.684-2.385 8.72 8.72 0 0 0 2.258-6.25 8.472 8.472 0 0 0-2.257-6.13 7.59 7.59 0 0 0-5.711-2.345z"/>
        <path d="M370.94 17.789c-15.044-4.361-23.5.953-31.932 3.864-5.814 2.007-18.916 10.661-30.457 3.31-3.284-2.09-5.826-5.086-9.426-6.668a29.561 29.561 0 0 0-11.969-2.525c-.057 0-.113.005-.17.005v-.005h-72l-3.936 10.207H84.815a22.097 22.097 0 0 0-8.21-7.397 26.179 26.179 0 0 0-8.68-2.423 7.604 7.604 0 0 0 1.38-2.629 8.422 8.422 0 0 1-4.286 2.371 62.896 62.896 0 0 0-3.994-.13H50.922c.307-.034.597-.068.861-.104a18.204 18.204 0 0 0 12.943-7.587A9.248 9.248 0 0 0 65.966 0c-.345 1.695-3.98 10.174-15.766 11.685a51.037 51.037 0 0 0-14.98 4.49s1.618-1.617 4.093-3.902S48.77 7.34 48.77 7.34c-7.677.492-16.216 5.6-19.545 8.745s-8.855 4.369-8.855 4.369a6.64 6.64 0 0 1 2.32 0c.418 4.467-2.89 5.413-2.89 5.413-11.804 4.55-13.042 7.729-13.042 7.729a3.634 3.634 0 0 1 1.596-3.847c-3.981.808-5.787 6.689-5.787 6.689C.567 34.425 0 35.023 0 35.023c1.904 2.761 3.454 10.062 3.454 10.062.502-3.17 3.914-3.48 3.914-3.48v2.271a11.374 11.374 0 0 0 2.972-3.506l.226 2.65a5.01 5.01 0 0 0 2.417-3.363l-.004 2.522c1.707-.621 2.666-3.426 2.666-3.426l-.224 2.31a4.654 4.654 0 0 0 2.385-2.929 6.08 6.08 0 0 0 .123 2.332c2.669-3.918 5.678-4.395 5.678-4.395 6.283 1.714 4.025 6.82 4.025 6.82a13.533 13.533 0 0 0-9.07.796l-.19-1.809a10.366 10.366 0 0 0-2.914 2.792l-.528-1.927a13.93 13.93 0 0 0-2.555 2.656l-.476-1.713a10.174 10.174 0 0 0-2.76 3.426l-.286-1.999c-4 4.736-1.776 7.537-1.776 7.537a4.062 4.062 0 0 1 .818-3.561 5.59 5.59 0 0 0 2.957 2.402c2.284.952 2.501 3.875 2.501 3.875 1.264-2.408-.818-4.792-.818-4.792 1.493.416 10.47-2.542 18.02-3.366s7.906 2.674 7.906 2.674c9.805-5.91 4.446-16.373 4.446-16.373a6.958 6.958 0 0 1 2.946 3.2v30.928h71.868a18.694 18.694 0 0 0 3.552 5.228 19.215 19.215 0 0 0 7.272 4.672 26.878 26.878 0 0 0 9.351 1.454c7.254 0 12.906-2.332 16.782-6.911a16.38 16.38 0 0 0 2.66-4.443h58.935l3.19-8.075h7.324l3.068 8.075h18.444c.166.004.329.018.497.018.17 0 .334-.014.504-.018h37.09c.22.004.437.018.66.018a29.752 29.752 0 0 0 11.296-2.065 33.659 33.659 0 0 0 10.156-6.915l.05-.047s8.565-7.07 11.036-8.453a16.686 16.686 0 0 1-2.739-1.12 15.773 15.773 0 0 0 7.075-2.909 15.969 15.969 0 0 1-2.811-.666 16.523 16.523 0 0 0 8.559-3.098 16.191 16.191 0 0 1-2.04-.43 15.09 15.09 0 0 0 6.865-3.384 14.168 14.168 0 0 1-2.789-.416 15.134 15.134 0 0 0 6.958-3.404 14.348 14.348 0 0 1-1.973-.235 13.51 13.51 0 0 0 5.893-1.903 14.957 14.957 0 0 1-2.25-.76 11.807 11.807 0 0 0 5.637-1.667 12.743 12.743 0 0 1-1.558-.5 9.934 9.934 0 0 0 4.827-.929 11.505 11.505 0 0 1-1.163-.498 10.074 10.074 0 0 0 5.072-.918 11.364 11.364 0 0 1-1.693-.78q.383-.117.768-.229a9.67 9.67 0 0 0 4.674-.259 12.225 12.225 0 0 1-1.07-.642l.06-.013a9.77 9.77 0 0 0 4.644.719 13.24 13.24 0 0 1-1.196-1.09 10.267 10.267 0 0 0 5.317 1.002 13.376 13.376 0 0 1-1.05-.939 10.031 10.031 0 0 0 4.737 1.185 13.747 13.747 0 0 1-1.213-1.289c.122.023.245.046.366.072a11.695 11.695 0 0 0 4.358 3.108 16.363 16.363 0 0 1-.938-1.974c.036.016.07.034.105.05a12.81 12.81 0 0 0 3.49 3.805 18.121 18.121 0 0 1-.249-.824 12.345 12.345 0 0 0 3.033 3.332 17.867 17.867 0 0 1-.25-.915 13.479 13.479 0 0 0 3.647 4.348 17.964 17.964 0 0 1-.264-.976c3.108 4.125 4.15 8.445 1.143 15.017-4.642 10.144-19.02 16.149-30.042 15.401 23.05 3.567 37.489-10.124 38.025-23.364.445-11-12.039-22.74-18.612-24.294zM28.33 28.104l-1.55-.19 1.19-.662s-.004-1.9 2.63-1.573 2.326 1.589 3.63 1.104c0 0-1.807 1.76-5.9 1.321zm247.097 20.51a12.22 12.22 0 0 0 4.82 4.775 14.002 14.002 0 0 0 6.924 1.734 14.27 14.27 0 0 0 5.938-1.213 21.294 21.294 0 0 0 5.912-4.416l5.06 5.28a27.799 27.799 0 0 1-8.21 5.88 22.428 22.428 0 0 1-8.821 1.639q-9.142 0-14.966-5.797a19.21 19.21 0 0 1-5.45-10.485v15.295h-7.41v-4.271a10.746 10.746 0 0 1-1.73 2.113 12.16 12.16 0 0 1-8.698 3.144 12.964 12.964 0 0 1-7.207-1.997l.389 1.011h-7.756l-3.067-8.075h-15.998l-3.19 8.075h-11.442V48.607a32.101 32.101 0 0 0-.465-6.894 4.716 4.716 0 0 0-1.622-2.596 4.542 4.542 0 0 0-2.858-.892 5.355 5.355 0 0 0-3.788 1.478 7.884 7.884 0 0 0-2.195 4.086 33.077 33.077 0 0 0-.319 5.883v11.634h-7.275v-11.25a15.339 15.339 0 0 1-1.69 4.4 14.717 14.717 0 0 1-5.556 5.584A15.348 15.348 0 0 1 167 62.053a14.465 14.465 0 0 1-10.648-4.438 14.838 14.838 0 0 1-3.53-5.551v5.084q0 7.357-2.96 10.82-3.97 4.692-11.966 4.692a20.95 20.95 0 0 1-7.169-1.067 12.5 12.5 0 0 1-7.862-8.155h8.022a6.635 6.635 0 0 0 2.745 1.853 11.362 11.362 0 0 0 3.971.626 10.462 10.462 0 0 0 4.717-.907 5.473 5.473 0 0 0 2.52-2.345 11.886 11.886 0 0 0 .732-4.958 12.052 12.052 0 0 1-4.025 2.76 12.794 12.794 0 0 1-4.77.839 13.111 13.111 0 0 1-9.861-4.211 13.998 13.998 0 0 1-3.305-5.662v9.873h-7.276V58.24a14.26 14.26 0 0 1-4.273 2.918 11.962 11.962 0 0 1-4.646.894 12.906 12.906 0 0 1-9.716-4.358 15.201 15.201 0 0 1-4.1-10.834 16.524 16.524 0 0 1 2.132-8.527 4.227 4.227 0 0 0-1.585-.402q-1.679 0-2.838 2.079t-1.16 8.156l.027 1.412v11.727h-7.223v-15.15a21 21 0 0 1-1.197 4.423 17.276 17.276 0 0 1-4.154 6.303 14.67 14.67 0 0 1-5.739 3.465q-3.09.959-10.704.96h-8.975V22.1h8.841q8.548 0 12.702 2.119a16.55 16.55 0 0 1 6.844 6.89 20.672 20.672 0 0 1 2.382 7.084v-5.886h6.237v3.652a7.789 7.789 0 0 1 2.692-3.278 6.496 6.496 0 0 1 3.678-1.12 6.813 6.813 0 0 1 2.958.746l-1.534 4.242c.19-.234.376-.472.583-.696a12.638 12.638 0 0 1 9.637-4.291 12.254 12.254 0 0 1 4.897.986 13.379 13.379 0 0 1 4.234 2.958v-3.199h7.276v8.964a13.638 13.638 0 0 1 3.545-5.925 12.723 12.723 0 0 1 9.221-3.785 12.265 12.265 0 0 1 4.731.92 15 15 0 0 1 4.464 3.025v-3.199h7.25v9.271a14.813 14.813 0 0 1 4.103-6.072 14.562 14.562 0 0 1 10.05-3.945 15.37 15.37 0 0 1 7.714 2.053 14.828 14.828 0 0 1 5.638 5.57 15.018 15.018 0 0 1 1.676 4.337V32.308h7.276v2.972a17.436 17.436 0 0 1 4.484-2.902 10.841 10.841 0 0 1 4.111-.816 9.954 9.954 0 0 1 7.32 3.012q2.53 2.558 2.528 7.569v10.06l11.608-30.102h7.569l11.64 30.264 3.91-2.36q2.83 5.197 6.513 5.198a4.794 4.794 0 0 0 3.23-1.12 3.33 3.33 0 0 0 1.308-2.585 4.464 4.464 0 0 0-.989-2.665 28.516 28.516 0 0 0-4.35-4.078q-6.41-5.223-8.278-8.062a10.242 10.242 0 0 1-1.869-5.664 9.261 9.261 0 0 1 3.11-6.996 10.782 10.782 0 0 1 7.67-2.918 12.106 12.106 0 0 1 5.592 1.359 18.382 18.382 0 0 1 4.839 3.94v-4.313h7.409v15.32a19.183 19.183 0 0 1 2.278-6.205 19.72 19.72 0 0 1 7.597-7.33 21.42 21.42 0 0 1 10.647-2.771 22.599 22.599 0 0 1 17.084 7.876l-5.22 4.976q-5.325-5.63-11.982-5.63a13.131 13.131 0 0 0-13.315 13.313 14.002 14.002 0 0 0 1.704 6.964z"/>
        <path d="M217.901 45.954h10.489l-5.229-13.459-5.26 13.459zM167.094 38.412a7.49 7.49 0 0 0-5.647 2.359 8.377 8.377 0 0 0-2.256 6.036 8.53 8.53 0 0 0 2.23 6.13 7.455 7.455 0 0 0 5.646 2.345 7.54 7.54 0 0 0 5.686-2.372 8.467 8.467 0 0 0 2.27-6.103 8.414 8.414 0 0 0-2.23-6.063 7.543 7.543 0 0 0-5.7-2.332zM248.681 28.257a3.605 3.605 0 0 0-2.402.787 2.29 2.29 0 0 0-.935 1.772 3.034 3.034 0 0 0 .668 1.866 50.613 50.613 0 0 0 5.472 5.037q4.272 3.572 5.18 4.504a18.036 18.036 0 0 1 2.56 3.175V28.235l-4.615 4.073q-2.91-4.05-5.928-4.05z"/>
    </g>
</svg>
